{"title":"Night at the Museum, Secret of the Tomb 2014 DVDrip English Klam","uid":11728691,"size":1519767081,"categoryP":"video","categoryS":"movies","magnet":"?xt=urn:btih:ddd4d70cf3354bb191e7308fd8aeba6bd4c18505&amp;dn=Night+at+the+Museum%2C+Secret+of+the+Tomb+2014+DVDrip+English+Klam&amp;tr=udp%3A%2F%2Ftracker.openbittorrent.com%3A80&amp;tr=udp%3A%2F%2Fopen.demonii.com%3A1337&amp;tr=udp%3A%2F%2Ftracker.coppersurfer.tk%3A6969&amp;tr=udp%3A%2F%2Fexodus.desync.com%3A6969","seeders":4,"leechers":0,"uploader":"Klambake","files":6,"time":1425199178,"description":" &lt;a href=&quot;http://i.imgur.com/FWPM2EE.jpg&quot; rel=&quot;nofollow&quot; target=&quot;_NEW&quot;&gt;http://i.imgur.com/FWPM2EE.jpg&lt;/a&gt;\n\nWith: Ben Stiller, Robin Williams and Ben Kingsley\n\nLarey Daley (Stiller) weet dat een Egyptisch tablet uit de tijd van de farao's het geheim is achter de tot leven komende museumstukken in het &quot;Museum of Natural History&quot;. Maar wanneer dit magisch tablet tekenen van corrosie begint te vertonen, reist Larry met onder andere Farao Ahkmenrah, Teddy Roosevelt en Attila de Hun af naar het &quot;British Museum&quot; in Londen om het te redden van zijn ondergang.\n &lt;a href=&quot;\nhttp://www.imdb.com/title/tt2692250&quot; rel=&quot;nofollow&quot; target=&quot;_NEW&quot;&gt;\nhttp://www.imdb.com/title/tt2692250&lt;/a&gt;\t\n\n--------------------- Dutch Friends 4ever ---------------------\n---------------------------------------------------------------\n- Bezoek ook eens mijn vrienden op: &lt;a href=&quot; http://www.Film-Test.nl&quot; rel=&quot;nofollow&quot; target=&quot;_NEW&quot;&gt; http://www.Film-Test.nl&lt;/a&gt; --\n----- voor mijn Nederlandse Sync. ondertitels ---- en meer ----\n------- http://www.Film-Test.nl ---- Over Films en meer -------\n---------------------------------------------------------------\n &lt;a href=&quot;\nhttp://i.imgur.com/js90RwK.jpg&quot; rel=&quot;nofollow&quot; target=&quot;_NEW&quot;&gt;\nhttp://i.imgur.com/js90RwK.jpg&lt;/a&gt; &lt;a href=&quot;\nhttp://i.imgur.com/9wEKep3.jpg&quot; rel=&quot;nofollow&quot; target=&quot;_NEW&quot;&gt;\nhttp://i.imgur.com/9wEKep3.jpg&lt;/a&gt; &lt;a href=&quot;\nhttp://i.imgur.com/offI8gp.jpg&quot; rel=&quot;nofollow&quot; target=&quot;_NEW&quot;&gt;\nhttp://i.imgur.com/offI8gp.jpg&lt;/a&gt;\n\nGeneral\nComplete name                            : Night at the MuseumSecret of the Tomb.avi\nFormat                                   : AVI\nFormat/Info                              : Audio Video Interleave\nFile size                                : 1.42 GiB\nDuration                                 : 1h 37mn\nOverall bit rate                         : 2 072 Kbps\n\nVideo:\n\nFormat                                   : MPEG-4 Visual\nFormat profile                           : Simple@L3\nFormat settings, BVOP                    : No\nFormat settings, QPel                    : No\nFormat settings, GMC                     : No warppoints\nFormat settings, Matrix                  : Default (H.263)\nCodec ID                                 : XVID\nCodec ID/Hint                            : XviD\nDuration                                 : 1h 37mn\nSource duration                          : 1h 37mn\nBit rate                                 : 1 613 Kbps\nWidth                                    : 652 pixels\nHeight                                   : 352 pixels\nDisplay aspect ratio                     : 1.85:1\nFrame rate                               : 25.000 fps\nColor space                              : YUV\nChroma subsampling                       : 4:2:0\nBit depth                                : 8 bits\nScan type                                : Progressive\nCompression mode                         : Lossy\nBits/(Pixel*Frame)                       : 0.281\nStream size                              : 1.10 GiB (78%)\nWriting library                          : XviD 1.1.2 (UTC 2006-11-01)\n\nAudio:\n\nFormat                                   : AC-3\nFormat/Info                              : Audio Coding 3\nMode extension                           : CM (complete main)\nFormat settings, Endianness              : Big\nCodec ID                                 : 2000\nDuration                                 : 1h 37mn\nBit rate mode                            : Constant\nBit rate                                 : 448 Kbps\nChannel(s)                               : 6 channels\nChannel positions                        : Front: L C R, Side: L R, LFE\nSampling rate                            : 48.0 KHz\nBit depth                                : 16 bits\nCompression mode                         : Lossy\nStream size                              : 313 MiB (22%)\nAlignment                                : Aligned on interleaves\nInterleave, duration                     : 32 ms (0.80 video frame)","torrent":{"xt":"urn:btih:ddd4d70cf3354bb191e7308fd8aeba6bd4c18505","amp;dn":"Night+at+the+Museum%2C+Secret+of+the+Tomb+2014+DVDrip+English+Klam","amp;tr":["udp%3A%2F%2Ftracker.openbittorrent.com%3A80","udp%3A%2F%2Fopen.demonii.com%3A1337","udp%3A%2F%2Ftracker.coppersurfer.tk%3A6969","udp%3A%2F%2Fexodus.desync.com%3A6969"],"infoHash":"ddd4d70cf3354bb191e7308fd8aeba6bd4c18505","infoHashBuffer":{"type":"Buffer","data":[221,212,215,12,243,53,75,177,145,231,48,143,216,174,186,107,212,193,133,5]},"announce":[],"urlList":[]}}